<svg width="17" height="17" viewBox="0 0 17 17" fill="none" xmlns="http://www.w3.org/2000/svg">
<path fill-rule="evenodd" clip-rule="evenodd" d="M10.2 5.95C9.97459 5.95 9.75839 5.86045 9.59898 5.70104C9.43958 5.54164 9.35002 5.32544 9.35002 5.1C9.35002 4.87457 9.43958 4.65837 9.59898 4.49896C9.75839 4.33956 9.97459 4.25 10.2 4.25H14.45C14.6755 4.25 14.8917 4.33956 15.0511 4.49896C15.2105 4.65837 15.3 4.87457 15.3 5.1V9.35C15.3 9.57543 15.2105 9.79163 15.0511 9.95104C14.8917 10.1104 14.6755 10.2 14.45 10.2C14.2246 10.2 14.0084 10.1104 13.849 9.95104C13.6896 9.79163 13.6 9.57543 13.6 9.35V7.1519L9.95097 10.8009C9.79157 10.9603 9.57541 11.0498 9.35002 11.0498C9.12463 11.0498 8.90847 10.9603 8.74907 10.8009L6.80002 8.8519L3.15098 12.5009C2.99066 12.6558 2.77595 12.7415 2.55309 12.7395C2.33022 12.7376 2.11703 12.6482 1.95943 12.4906C1.80183 12.333 1.71244 12.1198 1.7105 11.8969C1.70857 11.6741 1.79424 11.4594 1.94908 11.299L6.19907 7.04905C6.35847 6.8897 6.57463 6.80018 6.80002 6.80018C7.02541 6.80018 7.24157 6.8897 7.40097 7.04905L9.35002 8.9981L12.3981 5.95H10.2Z" fill="white"/>
</svg>
