<svg width="22" height="22" viewBox="0 0 22 22" fill="none" xmlns="http://www.w3.org/2000/svg">
<path fill-rule="evenodd" clip-rule="evenodd" d="M1.375 5.84375C1.375 4.89408 2.145 4.125 3.09375 4.125H18.9062C19.855 4.125 20.625 4.895 20.625 5.84375V8.61758C20.6251 8.73834 20.5933 8.85699 20.533 8.96158C20.4727 9.06618 20.3858 9.15304 20.2812 9.21342C19.9673 9.3942 19.7065 9.65452 19.5252 9.96817C19.3438 10.2818 19.2484 10.6377 19.2484 11C19.2484 11.3623 19.3438 11.7182 19.5252 12.0318C19.7065 12.3455 19.9673 12.6058 20.2812 12.7866C20.3858 12.847 20.4727 12.9338 20.533 13.0384C20.5933 13.143 20.6251 13.2617 20.625 13.3824V16.1562C20.625 17.105 19.855 17.875 18.9062 17.875H3.09375C2.63791 17.875 2.20074 17.6939 1.87841 17.3716C1.55608 17.0493 1.375 16.6121 1.375 16.1562V13.3824C1.37483 13.2618 1.40642 13.1432 1.4666 13.0386C1.52678 12.934 1.61343 12.8471 1.71783 12.7866C2.0318 12.6058 2.29258 12.3455 2.47391 12.0318C2.65523 11.7182 2.75071 11.3623 2.75071 11C2.75071 10.6377 2.65523 10.2818 2.47391 9.96817C2.29258 9.65452 2.0318 9.3942 1.71783 9.21342C1.61343 9.15292 1.52678 9.06601 1.4666 8.96143C1.40642 8.85684 1.37483 8.73825 1.375 8.61758V5.84375ZM15.125 4.8125C15.3073 4.8125 15.4822 4.88493 15.6111 5.01386C15.7401 5.1428 15.8125 5.31766 15.8125 5.5V6.1875C15.8125 6.36984 15.7401 6.5447 15.6111 6.67364C15.4822 6.80257 15.3073 6.875 15.125 6.875C14.9427 6.875 14.7678 6.80257 14.6389 6.67364C14.5099 6.5447 14.4375 6.36984 14.4375 6.1875V5.5C14.4375 5.31766 14.5099 5.1428 14.6389 5.01386C14.7678 4.88493 14.9427 4.8125 15.125 4.8125ZM15.8125 8.9375C15.8125 8.75516 15.7401 8.5803 15.6111 8.45136C15.4822 8.32243 15.3073 8.25 15.125 8.25C14.9427 8.25 14.7678 8.32243 14.6389 8.45136C14.5099 8.5803 14.4375 8.75516 14.4375 8.9375V9.625C14.4375 9.80734 14.5099 9.9822 14.6389 10.1111C14.7678 10.2401 14.9427 10.3125 15.125 10.3125C15.3073 10.3125 15.4822 10.2401 15.6111 10.1111C15.7401 9.9822 15.8125 9.80734 15.8125 9.625V8.9375ZM15.125 11.6875C15.3073 11.6875 15.4822 11.7599 15.6111 11.8889C15.7401 12.0178 15.8125 12.1927 15.8125 12.375V13.0625C15.8125 13.2448 15.7401 13.4197 15.6111 13.5486C15.4822 13.6776 15.3073 13.75 15.125 13.75C14.9427 13.75 14.7678 13.6776 14.6389 13.5486C14.5099 13.4197 14.4375 13.2448 14.4375 13.0625V12.375C14.4375 12.1927 14.5099 12.0178 14.6389 11.8889C14.7678 11.7599 14.9427 11.6875 15.125 11.6875ZM15.8125 15.8125C15.8125 15.6302 15.7401 15.4553 15.6111 15.3264C15.4822 15.1974 15.3073 15.125 15.125 15.125C14.9427 15.125 14.7678 15.1974 14.6389 15.3264C14.5099 15.4553 14.4375 15.6302 14.4375 15.8125V16.5C14.4375 16.6823 14.5099 16.8572 14.6389 16.9861C14.7678 17.1151 14.9427 17.1875 15.125 17.1875C15.3073 17.1875 15.4822 17.1151 15.6111 16.9861C15.7401 16.8572 15.8125 16.6823 15.8125 16.5V15.8125ZM5.5 11C5.5 10.8177 5.57243 10.6428 5.70136 10.5139C5.8303 10.3849 6.00516 10.3125 6.1875 10.3125H11C11.1823 10.3125 11.3572 10.3849 11.4861 10.5139C11.6151 10.6428 11.6875 10.8177 11.6875 11C11.6875 11.1823 11.6151 11.3572 11.4861 11.4861C11.3572 11.6151 11.1823 11.6875 11 11.6875H6.1875C6.00516 11.6875 5.8303 11.6151 5.70136 11.4861C5.57243 11.3572 5.5 11.1823 5.5 11ZM6.1875 13.0625C6.00516 13.0625 5.8303 13.1349 5.70136 13.2639C5.57243 13.3928 5.5 13.5677 5.5 13.75C5.5 13.9323 5.57243 14.1072 5.70136 14.2361C5.8303 14.3651 6.00516 14.4375 6.1875 14.4375H8.9375C9.11984 14.4375 9.29471 14.3651 9.42364 14.2361C9.55257 14.1072 9.625 13.9323 9.625 13.75C9.625 13.5677 9.55257 13.3928 9.42364 13.2639C9.29471 13.1349 9.11984 13.0625 8.9375 13.0625H6.1875Z" fill="#94989C"/>
</svg>
