<svg width="22" height="22" viewBox="0 0 22 22" fill="none" xmlns="http://www.w3.org/2000/svg">
<path fill-rule="evenodd" clip-rule="evenodd" d="M6.87499 5.5C6.87499 4.40598 7.30958 3.35677 8.08317 2.58318C8.85676 1.8096 9.90597 1.375 11 1.375C12.094 1.375 13.1432 1.8096 13.9168 2.58318C14.6904 3.35677 15.125 4.40598 15.125 5.5C15.125 6.59402 14.6904 7.64323 13.9168 8.41682C13.1432 9.1904 12.094 9.625 11 9.625C9.90597 9.625 8.85676 9.1904 8.08317 8.41682C7.30958 7.64323 6.87499 6.59402 6.87499 5.5ZM3.4384 18.4296C3.46931 16.4445 4.27957 14.5512 5.69428 13.1584C7.10899 11.7655 9.01468 10.9848 11 10.9848C12.9853 10.9848 14.891 11.7655 16.3057 13.1584C17.7204 14.5512 18.5307 16.4445 18.5616 18.4296C18.564 18.5632 18.5273 18.6947 18.4562 18.8078C18.385 18.921 18.2825 19.0109 18.161 19.0667C15.9144 20.0967 13.4715 20.6283 11 20.625C8.44615 20.625 6.01974 20.0677 3.83899 19.0667C3.71751 19.0109 3.61493 18.921 3.54378 18.8078C3.47264 18.6947 3.43602 18.5632 3.4384 18.4296Z" fill="#94989C"/>
</svg>
