<svg width="22" height="22" viewBox="0 0 22 22" fill="none" xmlns="http://www.w3.org/2000/svg">
<path fill-rule="evenodd" clip-rule="evenodd" d="M4.40367 19.8403C4.76547 19.9054 5.13239 19.938 5.5 19.9375C6.66185 19.9391 7.80045 19.6121 8.78442 18.9943C9.49392 19.1611 10.2364 19.25 11 19.25C15.8785 19.25 19.9375 15.6108 19.9375 11C19.9375 6.38917 15.8785 2.75 11 2.75C6.1215 2.75 2.0625 6.38917 2.0625 11C2.0625 13.2083 3.00208 15.2048 4.51367 16.676C4.72633 16.8832 4.76758 17.0683 4.7465 17.1738C4.63322 17.744 4.3764 18.2759 4.00033 18.7192C3.92226 18.8114 3.86985 18.9225 3.84838 19.0414C3.8269 19.1603 3.83713 19.2827 3.87802 19.3964C3.91891 19.51 3.98903 19.6109 4.08131 19.6888C4.17358 19.7668 4.28477 19.819 4.40367 19.8403ZM7.5625 9.96875C7.289 9.96875 7.02669 10.0774 6.8333 10.2708C6.6399 10.4642 6.53125 10.7265 6.53125 11C6.53125 11.2735 6.6399 11.5358 6.8333 11.7292C7.02669 11.9226 7.289 12.0312 7.5625 12.0312C7.836 12.0312 8.09831 11.9226 8.2917 11.7292C8.4851 11.5358 8.59375 11.2735 8.59375 11C8.59375 10.7265 8.4851 10.4642 8.2917 10.2708C8.09831 10.0774 7.836 9.96875 7.5625 9.96875ZM9.96875 11C9.96875 10.7265 10.0774 10.4642 10.2708 10.2708C10.4642 10.0774 10.7265 9.96875 11 9.96875C11.2735 9.96875 11.5358 10.0774 11.7292 10.2708C11.9226 10.4642 12.0312 10.7265 12.0312 11C12.0312 11.2735 11.9226 11.5358 11.7292 11.7292C11.5358 11.9226 11.2735 12.0312 11 12.0312C10.7265 12.0312 10.4642 11.9226 10.2708 11.7292C10.0774 11.5358 9.96875 11.2735 9.96875 11ZM14.4375 9.96875C14.164 9.96875 13.9017 10.0774 13.7083 10.2708C13.5149 10.4642 13.4062 10.7265 13.4062 11C13.4062 11.2735 13.5149 11.5358 13.7083 11.7292C13.9017 11.9226 14.164 12.0312 14.4375 12.0312C14.711 12.0312 14.9733 11.9226 15.1667 11.7292C15.3601 11.5358 15.4688 11.2735 15.4688 11C15.4688 10.7265 15.3601 10.4642 15.1667 10.2708C14.9733 10.0774 14.711 9.96875 14.4375 9.96875Z" fill="#94989C"/>
</svg>
