<svg width="22" height="22" viewBox="0 0 22 22" fill="none" xmlns="http://www.w3.org/2000/svg">
<path d="M5.36249 3.20832C5.47724 3.07157 5.5343 2.89554 5.52159 2.71747C5.50889 2.5394 5.42741 2.37326 5.29441 2.25418C5.1614 2.13511 4.98729 2.07244 4.80891 2.07943C4.63052 2.08642 4.46185 2.16253 4.33858 2.29165C3.21242 3.54772 2.46604 5.0977 2.18624 6.76132C2.16036 6.93921 2.20518 7.12015 2.3111 7.26539C2.41701 7.41063 2.5756 7.50861 2.75289 7.53834C2.93017 7.56807 3.11204 7.52718 3.25954 7.42443C3.40704 7.32168 3.50843 7.16525 3.54199 6.98865C3.77862 5.58158 4.40994 4.27062 5.36249 3.20832ZM17.6614 2.29165C17.6014 2.22376 17.5285 2.1684 17.447 2.12877C17.3656 2.08913 17.277 2.06599 17.1866 2.06069C17.0961 2.05538 17.0055 2.06802 16.9199 2.09786C16.8344 2.1277 16.7555 2.17417 16.688 2.23458C16.6204 2.295 16.5655 2.36817 16.5263 2.44989C16.4872 2.53161 16.4646 2.62027 16.4598 2.71076C16.455 2.80125 16.4682 2.8918 16.4985 2.97719C16.5288 3.06258 16.5758 3.14113 16.6366 3.20832C17.5894 4.27054 18.2211 5.5815 18.458 6.98865C18.4881 7.16856 18.5885 7.32912 18.737 7.43502C18.8106 7.48745 18.8937 7.52489 18.9818 7.54518C19.0698 7.56548 19.1609 7.56825 19.25 7.55332C19.3391 7.53839 19.4243 7.50607 19.5009 7.45819C19.5775 7.41031 19.6439 7.34781 19.6964 7.27427C19.7488 7.20072 19.7862 7.11757 19.8065 7.02956C19.8268 6.94155 19.8296 6.8504 19.8147 6.76132C19.5343 5.09752 18.7882 3.54753 17.6614 2.29165Z" fill="#94989C"/>
<path fill-rule="evenodd" clip-rule="evenodd" d="M11 2.0625C9.35898 2.0625 7.78516 2.7144 6.62478 3.87478C5.4644 5.03516 4.81251 6.60897 4.81251 8.25V8.9375C4.81533 10.8068 4.12299 12.6103 2.87009 13.9975C2.79485 14.081 2.74121 14.1816 2.71388 14.2906C2.68655 14.3996 2.68635 14.5136 2.71331 14.6227C2.74027 14.7318 2.79356 14.8327 2.86851 14.9164C2.94346 15.0001 3.0378 15.0642 3.14325 15.103C4.55859 15.6255 6.03992 16.0105 7.57167 16.2424C7.53718 16.7137 7.60024 17.1871 7.7569 17.6329C7.91356 18.0787 8.16047 18.4875 8.48219 18.8336C8.80391 19.1797 9.19355 19.4558 9.62676 19.6446C10.06 19.8334 10.5274 19.9308 11 19.9308C11.4726 19.9308 11.94 19.8334 12.3733 19.6446C12.8065 19.4558 13.1961 19.1797 13.5178 18.8336C13.8395 18.4875 14.0864 18.0787 14.2431 17.6329C14.3998 17.1871 14.4628 16.7137 14.4283 16.2424C15.939 16.0134 17.4225 15.6313 18.8558 15.1021C18.9611 15.0632 19.0553 14.9992 19.1301 14.9155C19.205 14.8318 19.2582 14.7311 19.2851 14.6222C19.3121 14.5132 19.3119 14.3993 19.2847 14.2904C19.2575 14.1815 19.204 14.081 19.129 13.9975C17.8764 12.6102 17.1844 10.8066 17.1875 8.9375V8.25C17.1875 6.60897 16.5356 5.03516 15.3752 3.87478C14.2148 2.7144 12.641 2.0625 11 2.0625ZM8.93751 16.5C8.93751 16.4688 8.9375 16.4386 8.93934 16.4083C10.3103 16.5319 11.6897 16.5319 13.0607 16.4083L13.0625 16.5C13.0625 17.047 12.8452 17.5716 12.4584 17.9584C12.0716 18.3452 11.547 18.5625 11 18.5625C10.453 18.5625 9.92839 18.3452 9.5416 17.9584C9.1548 17.5716 8.93751 17.047 8.93751 16.5Z" fill="#94989C"/>
</svg>
