<svg width="78" height="20" viewBox="0 0 78 20" fill="none" xmlns="http://www.w3.org/2000/svg">
<path d="M0.122673 12.5636L1.0402 12.6972C1.95772 12.8309 3.79277 13.0983 5.62783 12.6604C7.46288 12.2226 9.29793 11.0796 11.133 9.3534C12.968 7.62721 14.8031 5.31786 16.6381 8.12251C18.4732 10.9272 20.3082 18.8458 22.1433 18.8703C23.9783 18.8947 25.8134 11.025 27.6484 8.81763C29.4835 6.61021 31.3185 10.0651 33.1536 10.6764C34.9886 11.2877 36.8237 9.05539 38.6587 9.30407C40.4938 9.55276 42.3288 12.2824 44.1639 12.795C45.9989 13.3075 47.834 11.6029 49.669 8.85561C51.5041 6.10827 53.3391 2.31815 55.1742 4.11119C57.0092 5.90423 58.8443 13.2804 60.6793 16.0998C62.5144 18.9191 64.3494 17.1816 66.1845 12.8718C68.0195 8.56199 69.8546 1.67986 71.6897 0.925346C73.5247 0.170833 75.3598 5.54394 76.2773 8.23049L77.1948 10.917" stroke="#15CB89" stroke-width="1.7"/>
</svg>
