<svg width="22" height="22" viewBox="0 0 22 22" fill="none" xmlns="http://www.w3.org/2000/svg">
<path fill-rule="evenodd" clip-rule="evenodd" d="M6.87683 5.5H13.4108C14.2306 5.50121 15.0163 5.8277 15.5955 6.40776C16.1747 6.98782 16.5 7.77403 16.5 8.59375V17.1875C17.2293 17.1875 17.9288 16.8978 18.4445 16.382C18.9603 15.8663 19.25 15.1668 19.25 14.4375V5.599C19.25 4.21942 18.2187 3.02225 16.808 2.904C16.6025 2.88731 16.3968 2.87203 16.1911 2.85817C15.959 2.4111 15.6087 2.03634 15.1782 1.7748C14.7477 1.51325 14.2537 1.37495 13.75 1.375H12.375C11.8713 1.37495 11.3773 1.51325 10.9468 1.7748C10.5163 2.03634 10.166 2.4111 9.93391 2.85817C9.72766 2.87192 9.52141 2.8875 9.317 2.904C7.94016 3.02042 6.9245 4.1635 6.87683 5.5ZM12.375 2.75C12.0103 2.75 11.6606 2.89487 11.4027 3.15273C11.1449 3.41059 11 3.76033 11 4.125H15.125C15.125 3.76033 14.9801 3.41059 14.7223 3.15273C14.4644 2.89487 14.1147 2.75 13.75 2.75H12.375Z" fill="#94989C"/>
<path fill-rule="evenodd" clip-rule="evenodd" d="M2.75 8.59375C2.75 7.64408 3.52 6.875 4.46875 6.875H13.4062C14.3559 6.875 15.125 7.645 15.125 8.59375V18.9062C15.125 19.855 14.355 20.625 13.4062 20.625H4.46875C4.01291 20.625 3.57574 20.4439 3.25341 20.1216C2.93108 19.7993 2.75 19.3621 2.75 18.9062V8.59375ZM5.5 11C5.5 10.8177 5.57243 10.6428 5.70136 10.5139C5.8303 10.3849 6.00516 10.3125 6.1875 10.3125H6.19483C6.37717 10.3125 6.55204 10.3849 6.68097 10.5139C6.8099 10.6428 6.88233 10.8177 6.88233 11V11.0073C6.88233 11.1897 6.8099 11.3645 6.68097 11.4935C6.55204 11.6224 6.37717 11.6948 6.19483 11.6948H6.1875C6.00516 11.6948 5.8303 11.6224 5.70136 11.4935C5.57243 11.3645 5.5 11.1897 5.5 11.0073V11ZM7.5625 11C7.5625 10.8177 7.63493 10.6428 7.76386 10.5139C7.8928 10.3849 8.06766 10.3125 8.25 10.3125H11.6875C11.8698 10.3125 12.0447 10.3849 12.1736 10.5139C12.3026 10.6428 12.375 10.8177 12.375 11C12.375 11.1823 12.3026 11.3572 12.1736 11.4861C12.0447 11.6151 11.8698 11.6875 11.6875 11.6875H8.25C8.06766 11.6875 7.8928 11.6151 7.76386 11.4861C7.63493 11.3572 7.5625 11.1823 7.5625 11ZM5.5 13.75C5.5 13.5677 5.57243 13.3928 5.70136 13.2639C5.8303 13.1349 6.00516 13.0625 6.1875 13.0625H6.19483C6.37717 13.0625 6.55204 13.1349 6.68097 13.2639C6.8099 13.3928 6.88233 13.5677 6.88233 13.75V13.7573C6.88233 13.9397 6.8099 14.1145 6.68097 14.2435C6.55204 14.3724 6.37717 14.4448 6.19483 14.4448H6.1875C6.00516 14.4448 5.8303 14.3724 5.70136 14.2435C5.57243 14.1145 5.5 13.9397 5.5 13.7573V13.75ZM7.5625 13.75C7.5625 13.5677 7.63493 13.3928 7.76386 13.2639C7.8928 13.1349 8.06766 13.0625 8.25 13.0625H11.6875C11.8698 13.0625 12.0447 13.1349 12.1736 13.2639C12.3026 13.3928 12.375 13.5677 12.375 13.75C12.375 13.9323 12.3026 14.1072 12.1736 14.2361C12.0447 14.3651 11.8698 14.4375 11.6875 14.4375H8.25C8.06766 14.4375 7.8928 14.3651 7.76386 14.2361C7.63493 14.1072 7.5625 13.9323 7.5625 13.75ZM5.5 16.5C5.5 16.3177 5.57243 16.1428 5.70136 16.0139C5.8303 15.8849 6.00516 15.8125 6.1875 15.8125H6.19483C6.37717 15.8125 6.55204 15.8849 6.68097 16.0139C6.8099 16.1428 6.88233 16.3177 6.88233 16.5V16.5073C6.88233 16.6897 6.8099 16.8645 6.68097 16.9935C6.55204 17.1224 6.37717 17.1948 6.19483 17.1948H6.1875C6.00516 17.1948 5.8303 17.1224 5.70136 16.9935C5.57243 16.8645 5.5 16.6897 5.5 16.5073V16.5ZM7.5625 16.5C7.5625 16.3177 7.63493 16.1428 7.76386 16.0139C7.8928 15.8849 8.06766 15.8125 8.25 15.8125H11.6875C11.8698 15.8125 12.0447 15.8849 12.1736 16.0139C12.3026 16.1428 12.375 16.3177 12.375 16.5C12.375 16.6823 12.3026 16.8572 12.1736 16.9861C12.0447 17.1151 11.8698 17.1875 11.6875 17.1875H8.25C8.06766 17.1875 7.8928 17.1151 7.76386 16.9861C7.63493 16.8572 7.5625 16.6823 7.5625 16.5Z" fill="#94989C"/>
</svg>
