<svg width="16" height="16" viewBox="0 0 16 16" fill="none" xmlns="http://www.w3.org/2000/svg">
<path d="M14.4873 1.5127C14.1591 1.18458 13.7141 1.00024 13.25 1.00024C12.7859 1.00024 12.3408 1.18458 12.0127 1.5127L11.2413 2.28404L13.716 4.7587L14.4873 3.98737C14.8154 3.65919 14.9998 3.21412 14.9998 2.75004C14.9998 2.28596 14.8154 1.84088 14.4873 1.5127ZM13.0087 5.46604L10.534 2.99137L2.43399 11.0914C2.02255 11.5026 1.7201 12.0099 1.55399 12.5674L1.02065 14.3574C0.994904 14.4437 0.992984 14.5355 1.0151 14.6229C1.03721 14.7102 1.08253 14.79 1.14626 14.8538C1.21 14.9175 1.28978 14.9628 1.37716 14.9849C1.46454 15.007 1.55627 15.0051 1.64265 14.9794L3.43265 14.446C3.99014 14.2799 4.49743 13.9775 4.90865 13.566L13.0087 5.46604Z" fill="#0F172A" fill-opacity="0.3"/>
</svg>
