<svg width="26" height="26" viewBox="0 0 26 26" fill="none" xmlns="http://www.w3.org/2000/svg">
<path fill-rule="evenodd" clip-rule="evenodd" d="M13 2.4375C7.16625 2.4375 2.4375 7.16625 2.4375 13C2.4375 18.8338 7.16625 23.5625 13 23.5625C18.8338 23.5625 23.5625 18.8338 23.5625 13C23.5625 7.16625 18.8338 2.4375 13 2.4375ZM13.8125 9.75C13.8125 9.53451 13.7269 9.32785 13.5745 9.17548C13.4222 9.0231 13.2155 8.9375 13 8.9375C12.7845 8.9375 12.5778 9.0231 12.4255 9.17548C12.2731 9.32785 12.1875 9.53451 12.1875 9.75V12.1875H9.75C9.53451 12.1875 9.32785 12.2731 9.17548 12.4255C9.0231 12.5778 8.9375 12.7845 8.9375 13C8.9375 13.2155 9.0231 13.4222 9.17548 13.5745C9.32785 13.7269 9.53451 13.8125 9.75 13.8125H12.1875V16.25C12.1875 16.4655 12.2731 16.6722 12.4255 16.8245C12.5778 16.9769 12.7845 17.0625 13 17.0625C13.2155 17.0625 13.4222 16.9769 13.5745 16.8245C13.7269 16.6722 13.8125 16.4655 13.8125 16.25V13.8125H16.25C16.4655 13.8125 16.6722 13.7269 16.8245 13.5745C16.9769 13.4222 17.0625 13.2155 17.0625 13C17.0625 12.7845 16.9769 12.5778 16.8245 12.4255C16.6722 12.2731 16.4655 12.1875 16.25 12.1875H13.8125V9.75Z" fill="#FF6700"/>
</svg>
