<svg width="22" height="22" viewBox="0 0 22 22" fill="none" xmlns="http://www.w3.org/2000/svg">
<path fill-rule="evenodd" clip-rule="evenodd" d="M1.375 6.53125C1.375 5.58158 2.145 4.8125 3.09375 4.8125H8.59375C9.54342 4.8125 10.3125 5.5825 10.3125 6.53125V9.96875C10.3125 10.9184 9.5425 11.6875 8.59375 11.6875H3.09375C2.63791 11.6875 2.20074 11.5064 1.87841 11.1841C1.55608 10.8618 1.375 10.4246 1.375 9.96875V6.53125ZM12.375 7.90625C12.375 6.95658 13.145 6.1875 14.0938 6.1875H18.9062C19.855 6.1875 20.625 6.9575 20.625 7.90625V15.4688C20.625 16.4175 19.855 17.1875 18.9062 17.1875H14.0938C13.6379 17.1875 13.2007 17.0064 12.8784 16.6841C12.5561 16.3618 12.375 15.9246 12.375 15.4688V7.90625ZM2.75 14.7812C2.75 13.8316 3.52 13.0625 4.46875 13.0625H9.28125C10.2309 13.0625 11 13.8325 11 14.7812V16.8438C11 17.7925 10.23 18.5625 9.28125 18.5625H4.46875C4.01291 18.5625 3.57574 18.3814 3.25341 18.0591C2.93108 17.7368 2.75 17.2996 2.75 16.8438V14.7812Z" fill="#94989C"/>
</svg>
