<svg width="24" height="24" viewBox="0 0 24 24" fill="none" xmlns="http://www.w3.org/2000/svg">
<path fill-rule="evenodd" clip-rule="evenodd" d="M9.40093 3.00299C10.5559 1.00299 13.4439 1.00299 14.5979 3.00299L21.9529 15.751C23.1069 17.751 21.6629 20.251 19.3539 20.251H4.64493C2.33593 20.251 0.892934 17.751 2.04693 15.751L9.39993 3.00299H9.40093ZM11.9999 8.24999C12.1988 8.24999 12.3896 8.32901 12.5303 8.46966C12.6709 8.61031 12.7499 8.80108 12.7499 8.99999V12.75C12.7499 12.9489 12.6709 13.1397 12.5303 13.2803C12.3896 13.421 12.1988 13.5 11.9999 13.5C11.801 13.5 11.6103 13.421 11.4696 13.2803C11.329 13.1397 11.2499 12.9489 11.2499 12.75V8.99999C11.2499 8.80108 11.329 8.61031 11.4696 8.46966C11.6103 8.32901 11.801 8.24999 11.9999 8.24999ZM11.9999 16.5C12.1988 16.5 12.3896 16.421 12.5303 16.2803C12.6709 16.1397 12.7499 15.9489 12.7499 15.75C12.7499 15.5511 12.6709 15.3603 12.5303 15.2197C12.3896 15.079 12.1988 15 11.9999 15C11.801 15 11.6103 15.079 11.4696 15.2197C11.329 15.3603 11.2499 15.5511 11.2499 15.75C11.2499 15.9489 11.329 16.1397 11.4696 16.2803C11.6103 16.421 11.801 16.5 11.9999 16.5Z" fill="#F1F1F1"/>
</svg>
