<svg width="20" height="20" viewBox="0 0 20 20" fill="none" xmlns="http://www.w3.org/2000/svg">
<path fill-rule="evenodd" clip-rule="evenodd" d="M16.403 12.652C16.8853 12.397 17.2888 12.0153 17.5703 11.548C17.8518 11.0807 18.0006 10.5455 18.0006 10C18.0006 9.45448 17.8518 8.91928 17.5703 8.452C17.2888 7.98471 16.8853 7.60302 16.403 7.348C16.5638 6.8267 16.5793 6.27143 16.448 5.74195C16.3167 5.21247 16.0435 4.72881 15.6578 4.34301C15.2721 3.95722 14.7885 3.68389 14.2591 3.55245C13.7296 3.421 13.1744 3.4364 12.653 3.597C12.3981 3.11451 12.0164 2.71069 11.549 2.42903C11.0816 2.14736 10.5462 1.99851 10.0005 1.99851C9.45482 1.99851 8.91945 2.14736 8.45206 2.42903C7.98467 2.71069 7.60296 3.11451 7.34802 3.597C6.82672 3.43626 6.27145 3.42071 5.74197 3.55202C5.21249 3.68333 4.72883 3.95652 4.34303 4.34221C3.95724 4.7279 3.68392 5.21149 3.55247 5.74094C3.42102 6.27038 3.43642 6.82565 3.59702 7.347C3.11453 7.60194 2.71071 7.98365 2.42905 8.45104C2.14738 8.91843 1.99854 9.4538 1.99854 9.9995C1.99854 10.5452 2.14738 11.0806 2.42905 11.548C2.71071 12.0154 3.11453 12.3971 3.59702 12.652C3.43628 13.1733 3.42073 13.7286 3.55204 14.2581C3.68335 14.7875 3.95654 15.2712 4.34223 15.657C4.72792 16.0428 5.21151 16.3161 5.74096 16.4476C6.27041 16.579 6.82567 16.5636 7.34702 16.403C7.60196 16.8855 7.98367 17.2893 8.45106 17.571C8.91845 17.8526 9.45382 18.0015 9.99952 18.0015C10.5452 18.0015 11.0806 17.8526 11.548 17.571C12.0154 17.2893 12.3971 16.8855 12.652 16.403C13.1733 16.5637 13.7286 16.5793 14.2581 16.448C14.7876 16.3167 15.2712 16.0435 15.657 15.6578C16.0428 15.2721 16.3161 14.7885 16.4476 14.2591C16.579 13.7296 16.5636 13.1733 16.403 12.652ZM13.857 8.192C13.915 8.11229 13.9567 8.02194 13.9798 7.9261C14.0028 7.83027 14.0068 7.73084 13.9914 7.63347C13.9761 7.53611 13.9417 7.44273 13.8902 7.35866C13.8387 7.27459 13.7712 7.20148 13.6915 7.1435C13.6118 7.08552 13.5215 7.04381 13.4256 7.02075C13.3298 6.99769 13.2304 6.99373 13.133 7.0091C13.0356 7.02447 12.9423 7.05886 12.8582 7.11032C12.7741 7.16178 12.701 7.22929 12.643 7.309L9.16002 12.099L7.28002 10.219C7.2108 10.1474 7.12802 10.0903 7.03649 10.051C6.94497 10.0118 6.84655 9.99114 6.74696 9.99032C6.64738 9.9895 6.54863 10.0085 6.45648 10.0463C6.36432 10.084 6.28061 10.1398 6.21022 10.2102C6.13984 10.2807 6.08419 10.3644 6.04652 10.4566C6.00885 10.5488 5.98992 10.6476 5.99083 10.7472C5.99175 10.8467 6.01248 10.9451 6.05183 11.0366C6.09118 11.1281 6.14836 11.2108 6.22002 11.28L8.72002 13.78C8.79665 13.8567 8.88898 13.9158 8.99067 13.9534C9.09235 13.9909 9.20097 14.006 9.30903 13.9975C9.4171 13.9891 9.52205 13.9573 9.61665 13.9044C9.71125 13.8515 9.79326 13.7787 9.85702 13.691L13.857 8.191V8.192Z" fill="#FF6700"/>
</svg>
