<svg width="22" height="22" viewBox="0 0 22 22" fill="none" xmlns="http://www.w3.org/2000/svg">
<path d="M9.59199 8.01717C9.80007 7.85217 10.0476 7.73209 10.3125 7.65601V10.2181C10.051 10.1465 9.80617 10.0241 9.59199 9.85784C9.23082 9.57092 9.09149 9.23359 9.09149 8.93751C9.09149 8.64142 9.23082 8.30409 9.59199 8.01717ZM11.6875 14.3568V11.7682C12.0056 11.8461 12.2962 11.9772 12.5317 12.1541C12.9232 12.4474 13.0625 12.7829 13.0625 13.0625C13.0625 13.3421 12.9232 13.6776 12.5317 13.9709C12.2791 14.1547 11.9919 14.2866 11.6875 14.3568Z" fill="#94989C"/>
<path fill-rule="evenodd" clip-rule="evenodd" d="M11 2.0625C6.06375 2.0625 2.0625 6.06375 2.0625 11C2.0625 15.9363 6.06375 19.9375 11 19.9375C15.9363 19.9375 19.9375 15.9363 19.9375 11C19.9375 6.06375 15.9363 2.0625 11 2.0625ZM11.6875 5.5C11.6875 5.31766 11.6151 5.1428 11.4861 5.01386C11.3572 4.88493 11.1823 4.8125 11 4.8125C10.8177 4.8125 10.6428 4.88493 10.5139 5.01386C10.3849 5.1428 10.3125 5.31766 10.3125 5.5V6.248C9.73763 6.34473 9.19582 6.58288 8.73583 6.941C8.08317 7.45983 7.7165 8.1785 7.7165 8.9375C7.7165 9.69742 8.08317 10.4152 8.73675 10.934C9.19692 11.3007 9.74692 11.5271 10.3125 11.627V14.3568C10.008 14.2863 9.72086 14.155 9.46825 13.9709L8.6625 13.3659C8.59027 13.3117 8.50808 13.2723 8.42062 13.2499C8.33317 13.2275 8.24215 13.2226 8.15277 13.2353C7.97227 13.2611 7.8094 13.3575 7.7 13.5034C7.5906 13.6493 7.54362 13.8326 7.56941 14.0131C7.5952 14.1936 7.69163 14.3565 7.8375 14.4659L8.64325 15.0709C9.13183 15.4376 9.71483 15.6622 10.3125 15.7584V16.5C10.3125 16.6823 10.3849 16.8572 10.5139 16.9861C10.6428 17.1151 10.8177 17.1875 11 17.1875C11.1823 17.1875 11.3572 17.1151 11.4861 16.9861C11.6151 16.8572 11.6875 16.6823 11.6875 16.5V15.7575C12.2912 15.6668 12.8639 15.4312 13.3568 15.0709C14.0397 14.5585 14.4375 13.8389 14.4375 13.0625C14.4375 12.2861 14.0397 11.5665 13.3568 11.0541C12.8641 10.6934 12.2913 10.4575 11.6875 10.3666V7.65783C11.9533 7.733 12.1999 7.85308 12.408 8.01808L12.7884 8.32058C12.9312 8.434 13.1133 8.48603 13.2945 8.46523C13.4757 8.44442 13.6412 8.3525 13.7546 8.20967C13.868 8.06684 13.92 7.8848 13.8992 7.70361C13.8784 7.52242 13.7865 7.35691 13.6437 7.2435L13.2633 6.941C12.8034 6.58334 12.262 6.34553 11.6875 6.24892V5.5Z" fill="#94989C"/>
</svg>
