<svg width="18" height="18" viewBox="0 0 18 18" fill="none" xmlns="http://www.w3.org/2000/svg">
<path d="M4.88971 12.5253L6.02551 9.6858C6.20654 9.23345 6.47751 8.82255 6.82201 8.478L13.05 2.2518C13.4081 1.89376 13.8937 1.69261 14.4 1.69261C14.9064 1.69261 15.392 1.89376 15.75 2.2518C16.1081 2.60984 16.3092 3.09545 16.3092 3.6018C16.3092 4.10815 16.1081 4.59376 15.75 4.9518L9.52201 11.178C9.17731 11.5227 8.76601 11.7945 8.31331 11.9754L5.47471 13.1112C5.39293 13.1439 5.30334 13.1519 5.21706 13.1342C5.13077 13.1165 5.05157 13.0739 4.98928 13.0116C4.927 12.9493 4.88436 12.8701 4.86666 12.7839C4.84896 12.6976 4.85697 12.608 4.88971 12.5262V12.5253Z" fill="#FF6700"/>
<path d="M3.14999 5.175C3.14999 4.554 3.65399 4.05 4.27499 4.05H8.99999C9.17901 4.05 9.3507 3.97888 9.47728 3.85229C9.60387 3.72571 9.67499 3.55402 9.67499 3.375C9.67499 3.19598 9.60387 3.02429 9.47728 2.8977C9.3507 2.77111 9.17901 2.7 8.99999 2.7H4.27499C3.61858 2.7 2.98905 2.96076 2.5249 3.42491C2.06075 3.88906 1.79999 4.51859 1.79999 5.175V13.725C1.79999 14.3814 2.06075 15.0109 2.5249 15.4751C2.98905 15.9392 3.61858 16.2 4.27499 16.2H12.825C13.4814 16.2 14.1109 15.9392 14.5751 15.4751C15.0392 15.0109 15.3 14.3814 15.3 13.725V9C15.3 8.82098 15.2289 8.64929 15.1023 8.5227C14.9757 8.39611 14.804 8.325 14.625 8.325C14.446 8.325 14.2743 8.39611 14.1477 8.5227C14.0211 8.64929 13.95 8.82098 13.95 9V13.725C13.95 14.346 13.446 14.85 12.825 14.85H4.27499C3.65399 14.85 3.14999 14.346 3.14999 13.725V5.175Z" fill="#FF6700"/>
</svg>
