<svg width="76" height="63" viewBox="0 0 76 63" fill="none" xmlns="http://www.w3.org/2000/svg">
<g filter="url(#filter0_d_639_3596)">
<path fill-rule="evenodd" clip-rule="evenodd" d="M17.0648 8.53241C13.295 8.53241 10.2389 11.5885 10.2389 15.3583L10.2389 37.5426C10.2389 41.3125 13.295 44.3685 17.0648 44.3685L31.0881 44.3685C31.0989 44.381 31.1099 44.3934 31.1211 44.4057L36.686 50.4989C37.3626 51.2399 38.5294 51.2399 39.2061 50.4989L44.7709 44.4057C44.7822 44.3934 44.7932 44.381 44.804 44.3685L58.8278 44.3685C62.5976 44.3685 65.6537 41.3125 65.6537 37.5426L65.6537 15.3583C65.6537 11.5885 62.5976 8.53241 58.8278 8.53241L17.0648 8.53241Z" fill="white"/>
</g>
<defs>
<filter id="filter0_d_639_3596" x="-1.15304e-05" y="7.20651e-07" width="75.8926" height="63" filterUnits="userSpaceOnUse" color-interpolation-filters="sRGB">
<feFlood flood-opacity="0" result="BackgroundImageFix"/>
<feColorMatrix in="SourceAlpha" type="matrix" values="0 0 0 0 0 0 0 0 0 0 0 0 0 0 0 0 0 0 127 0" result="hardAlpha"/>
<feOffset dy="1.69371"/>
<feGaussianBlur stdDeviation="5.08112"/>
<feComposite in2="hardAlpha" operator="out"/>
<feColorMatrix type="matrix" values="0 0 0 0 0.0509804 0 0 0 0 0.0392157 0 0 0 0 0.172549 0 0 0 0.07 0"/>
<feBlend mode="normal" in2="BackgroundImageFix" result="effect1_dropShadow_639_3596"/>
<feBlend mode="normal" in="SourceGraphic" in2="effect1_dropShadow_639_3596" result="shape"/>
</filter>
</defs>
</svg>
