<svg width="20" height="20" viewBox="0 0 20 20" fill="none" xmlns="http://www.w3.org/2000/svg">
<path fill-rule="evenodd" clip-rule="evenodd" d="M7.94 1.43166C8.0276 1.51923 8.08721 1.63087 8.11124 1.75239C8.13528 1.8739 8.12266 1.99982 8.075 2.11416C7.69402 3.0285 7.49857 4.00945 7.5 4.99999C7.5 6.98911 8.29018 8.89677 9.6967 10.3033C11.1032 11.7098 13.0109 12.5 15 12.5C15.9905 12.5014 16.9715 12.306 17.8858 11.925C18.0001 11.8774 18.1259 11.8648 18.2473 11.8888C18.3687 11.9128 18.4803 11.9723 18.5678 12.0598C18.6554 12.1473 18.715 12.2588 18.7391 12.3801C18.7633 12.5015 18.7508 12.6274 18.7033 12.7417C18.0384 14.336 16.9164 15.698 15.4789 16.6559C14.0414 17.6139 12.3525 18.125 10.625 18.125C5.7925 18.125 1.875 14.2075 1.875 9.37499C1.875 5.73499 4.0975 2.61499 7.25833 1.29666C7.37256 1.24917 7.49831 1.23666 7.61966 1.26069C7.74101 1.28472 7.85249 1.34422 7.94 1.43166Z" fill="#94989C"/>
</svg>
