<svg width="16" height="16" viewBox="0 0 16 16" fill="none" xmlns="http://www.w3.org/2000/svg">
<path d="M2.35334 1.64665C2.25856 1.55833 2.1332 1.51024 2.00366 1.51253C1.87413 1.51481 1.75054 1.56729 1.65893 1.6589C1.56732 1.75051 1.51485 1.8741 1.51256 2.00363C1.51027 2.13316 1.55836 2.25853 1.64668 2.35331L13.6467 14.3533C13.6925 14.4024 13.7477 14.4418 13.809 14.4692C13.8703 14.4965 13.9365 14.5112 14.0037 14.5124C14.0708 14.5136 14.1375 14.5012 14.1997 14.4761C14.262 14.4509 14.3186 14.4135 14.366 14.366C14.4135 14.3185 14.4509 14.262 14.4761 14.1997C14.5012 14.1375 14.5136 14.0708 14.5124 14.0036C14.5112 13.9365 14.4965 13.8703 14.4692 13.809C14.4419 13.7476 14.4025 13.6924 14.3533 13.6466L2.35334 1.64665ZM15.1173 8.36865C14.758 9.44697 14.1582 10.4295 13.3633 11.242L11.2973 9.17598C11.5202 8.55193 11.5614 7.87742 11.416 7.2309C11.2706 6.58438 10.9447 5.99241 10.4762 5.52384C10.0076 5.05526 9.41561 4.72934 8.76909 4.58397C8.12257 4.4386 7.44806 4.47975 6.82401 4.70265L5.17268 3.05131C6.07069 2.68595 7.03118 2.4987 8.00068 2.49998C11.314 2.49998 14.124 4.64865 15.1173 7.62665C15.1973 7.86798 15.1973 8.12798 15.1173 8.36865Z" fill="#0F172A" fill-opacity="0.3"/>
<path d="M10.5 8.00004C10.5 8.12004 10.4913 8.23804 10.4753 8.35337L7.64601 5.5247C8.00066 5.47397 8.36208 5.50006 8.70577 5.6012C9.04946 5.70234 9.3674 5.87616 9.63804 6.1109C9.90869 6.34564 10.1257 6.63581 10.2744 6.96174C10.4232 7.28768 10.5001 7.64177 10.5 8.00004ZM8.35334 10.4754L5.52468 7.64604C5.46974 8.03029 5.50503 8.42206 5.62776 8.7903C5.75049 9.15855 5.95727 9.49316 6.23175 9.76764C6.50622 10.0421 6.84083 10.2489 7.20908 10.3716C7.57733 10.4943 7.96909 10.5296 8.35334 10.4747V10.4754Z" fill="#0F172A" fill-opacity="0.3"/>
<path d="M4.5 7.99999C4.5 7.58732 4.57133 7.19132 4.70266 6.82399L2.636 4.75732C1.8414 5.56989 1.24185 6.55241 0.882662 7.63066C0.802662 7.87199 0.802662 8.13199 0.882662 8.37332C1.87533 11.3513 4.68533 13.5 7.99933 13.5C8.99933 13.5 9.95466 13.304 10.8273 12.9487L9.176 11.2973C8.64776 11.4858 8.08198 11.5445 7.5263 11.4686C6.97062 11.3927 6.44132 11.1844 5.98298 10.8612C5.52464 10.538 5.15068 10.1093 4.89259 9.61141C4.63451 9.11349 4.49986 8.56083 4.5 7.99999Z" fill="#0F172A" fill-opacity="0.3"/>
</svg>
