<svg width="60" height="60" viewBox="0 0 60 60" fill="none" xmlns="http://www.w3.org/2000/svg">
<circle cx="30" cy="30" r="25" fill="#FF6700"/>
<path d="M39.875 23.6406C39.875 26.4448 35.6771 28.7188 30.5 28.7188C25.3229 28.7188 21.125 26.4448 21.125 23.6406C21.125 20.8365 25.3229 18.5625 30.5 18.5625C35.6771 18.5625 39.875 20.8365 39.875 23.6406Z" fill="white"/>
<path d="M30.5 30.2812C33.2969 30.2812 35.9062 29.6708 37.8729 28.6052C38.5967 28.2209 39.2621 27.7355 39.849 27.1635C39.8656 27.2896 39.875 27.4177 39.875 27.5468C39.875 30.351 35.6771 32.625 30.5 32.625C25.3229 32.625 21.125 30.351 21.125 27.5468C21.125 27.4177 21.1344 27.2896 21.151 27.1635C21.7379 27.7354 22.4033 28.2209 23.1271 28.6052C25.0927 29.6708 27.7031 30.2812 30.5 30.2812Z" fill="white"/>
<path d="M30.5 34.1875C33.2969 34.1875 35.9062 33.5771 37.8729 32.5114C38.5967 32.1272 39.2621 31.6417 39.849 31.0698C39.8656 31.1958 39.875 31.3239 39.875 31.4531C39.875 34.2573 35.6771 36.5312 30.5 36.5312C25.3229 36.5312 21.125 34.2573 21.125 31.4531C21.125 31.3239 21.1344 31.1958 21.151 31.0698C21.7379 31.6417 22.4033 32.1271 23.1271 32.5114C25.0927 33.5771 27.7031 34.1875 30.5 34.1875Z" fill="white"/>
<path d="M30.5 38.0937C33.2969 38.0937 35.9062 37.4833 37.8729 36.4177C38.5967 36.0334 39.2621 35.548 39.849 34.976C39.8656 35.1021 39.875 35.2302 39.875 35.3593C39.875 38.1635 35.6771 40.4375 30.5 40.4375C25.3229 40.4375 21.125 38.1635 21.125 35.3593C21.125 35.2302 21.1344 35.1021 21.151 34.976C21.7379 35.548 22.4033 36.0334 23.1271 36.4177C25.0927 37.4833 27.7031 38.0937 30.5 38.0937Z" fill="white"/>
</svg>
