<svg width="22" height="22" viewBox="0 0 22 22" fill="none" xmlns="http://www.w3.org/2000/svg">
<path fill-rule="evenodd" clip-rule="evenodd" d="M1.09998 3.02501C1.09998 2.80621 1.1869 2.59637 1.34161 2.44165C1.49633 2.28693 1.70617 2.20001 1.92498 2.20001H20.075C20.2938 2.20001 20.5036 2.28693 20.6583 2.44165C20.8131 2.59637 20.9 2.80621 20.9 3.02501C20.9 3.24382 20.8131 3.45366 20.6583 3.60838C20.5036 3.76309 20.2938 3.85001 20.075 3.85001H19.8V13.475C19.8 14.2773 19.4813 15.0467 18.914 15.614C18.3467 16.1813 17.5773 16.5 16.775 16.5H15.5958L16.4736 19.866C16.529 20.0778 16.498 20.303 16.3875 20.4919C16.2769 20.6809 16.0958 20.8182 15.884 20.8736C15.6722 20.929 15.447 20.8981 15.2581 20.7875C15.0691 20.6769 14.9318 20.4958 14.8764 20.284L14.751 19.8H7.24898L7.12358 20.284C7.06815 20.4958 6.93085 20.6769 6.74189 20.7875C6.55292 20.8981 6.32778 20.929 6.11598 20.8736C5.90417 20.8182 5.72307 20.6809 5.61249 20.4919C5.50192 20.303 5.47095 20.0778 5.52638 19.866L6.40528 16.5H5.22498C4.4227 16.5 3.65328 16.1813 3.08598 15.614C2.51868 15.0467 2.19998 14.2773 2.19998 13.475V3.85001H1.92498C1.70617 3.85001 1.49633 3.76309 1.34161 3.60838C1.1869 3.45366 1.09998 3.24382 1.09998 3.02501ZM8.11028 16.5L7.68018 18.15H14.3209L13.8897 16.5H8.11028ZM14.575 5.50001C14.7938 5.50001 15.0036 5.58693 15.1583 5.74165C15.3131 5.89637 15.4 6.10621 15.4 6.32501V12.375C15.4 12.5938 15.3131 12.8037 15.1583 12.9584C15.0036 13.1131 14.7938 13.2 14.575 13.2C14.3562 13.2 14.1463 13.1131 13.9916 12.9584C13.8369 12.8037 13.75 12.5938 13.75 12.375V6.32501C13.75 6.10621 13.8369 5.89637 13.9916 5.74165C14.1463 5.58693 14.3562 5.50001 14.575 5.50001ZM7.42498 9.90001C7.64378 9.90001 7.85362 9.98693 8.00834 10.1416C8.16306 10.2964 8.24998 10.5062 8.24998 10.725V12.375C8.24998 12.5938 8.16306 12.8037 8.00834 12.9584C7.85362 13.1131 7.64378 13.2 7.42498 13.2C7.20617 13.2 6.99633 13.1131 6.84161 12.9584C6.68689 12.8037 6.59998 12.5938 6.59998 12.375V10.725C6.59998 10.5062 6.68689 10.2964 6.84161 10.1416C6.99633 9.98693 7.20617 9.90001 7.42498 9.90001ZM11.825 8.52501C11.825 8.30621 11.7381 8.09637 11.5833 7.94165C11.4286 7.78693 11.2188 7.70001 11 7.70001C10.7812 7.70001 10.5713 7.78693 10.4166 7.94165C10.2619 8.09637 10.175 8.30621 10.175 8.52501V12.375C10.175 12.5938 10.2619 12.8037 10.4166 12.9584C10.5713 13.1131 10.7812 13.2 11 13.2C11.2188 13.2 11.4286 13.1131 11.5833 12.9584C11.7381 12.8037 11.825 12.5938 11.825 12.375V8.52501Z" fill="#FF6700"/>
</svg>
