<svg width="60" height="60" viewBox="0 0 60 60" fill="none" xmlns="http://www.w3.org/2000/svg">
<rect width="60" height="60" rx="30" fill="white"/>
<path fill-rule="evenodd" clip-rule="evenodd" d="M46.7125 47.7425C49.135 45.4662 51.0649 42.7172 52.3829 39.6655C53.7008 36.6138 54.3788 33.3242 54.375 30C54.375 16.5375 43.4625 5.625 30 5.625C16.5375 5.625 5.62499 16.5375 5.62499 30C5.62114 33.3242 6.29915 36.6138 7.61711 39.6655C8.93507 42.7172 10.865 45.4662 13.2875 47.7425C17.8048 52.0097 23.7858 54.3834 30 54.375C36.2141 54.3834 42.1951 52.0097 46.7125 47.7425ZM15.3625 44.53C17.1177 42.3341 19.345 40.5618 21.8791 39.3448C24.4131 38.1277 27.1888 37.4972 30 37.5C32.8112 37.4972 35.5868 38.1277 38.1209 39.3448C40.655 40.5618 42.8823 42.3341 44.6375 44.53C42.7225 46.4643 40.4426 47.999 37.9299 49.0453C35.4172 50.0916 32.7218 50.6285 30 50.625C27.2782 50.6285 24.5827 50.0916 22.0701 49.0453C19.5574 47.999 17.2774 46.4643 15.3625 44.53ZM39.375 22.5C39.375 24.9864 38.3873 27.371 36.6291 29.1291C34.871 30.8873 32.4864 31.875 30 31.875C27.5136 31.875 25.129 30.8873 23.3709 29.1291C21.6127 27.371 20.625 24.9864 20.625 22.5C20.625 20.0136 21.6127 17.629 23.3709 15.8709C25.129 14.1127 27.5136 13.125 30 13.125C32.4864 13.125 34.871 14.1127 36.6291 15.8709C38.3873 17.629 39.375 20.0136 39.375 22.5Z" fill="#FF6700"/>
</svg>
