<svg width="20" height="20" viewBox="0 0 20 20" fill="none" xmlns="http://www.w3.org/2000/svg">
<g clip-path="url(#clip0_1015_3324)">
<path d="M2.88667 13.2317C2.33167 12.6775 2.68667 11.745 3.43833 11.6717L3.53417 11.6667H16.6667C16.8791 11.6669 17.0834 11.7482 17.2378 11.894C17.3923 12.0398 17.4852 12.2391 17.4976 12.4512C17.5101 12.6632 17.4411 12.872 17.3048 13.0349C17.1685 13.1977 16.9751 13.3024 16.7642 13.3275L16.6667 13.3333H5.345L7.25583 15.2442C7.40529 15.3941 7.49206 15.5954 7.49852 15.807C7.50499 16.0186 7.43065 16.2248 7.29063 16.3836C7.1506 16.5424 6.95537 16.6419 6.7446 16.662C6.53384 16.6821 6.32333 16.6212 6.15583 16.4917L6.0775 16.4225L2.88583 13.2308L2.88667 13.2317ZM2.5 7.5C2.50003 7.29589 2.57496 7.09888 2.7106 6.94636C2.84623 6.79383 3.03312 6.69638 3.23583 6.6725L3.33333 6.66667H14.655L12.7442 4.75583C12.5947 4.60587 12.5079 4.40464 12.5015 4.19301C12.495 3.98139 12.5693 3.77524 12.7094 3.61643C12.8494 3.45763 13.0446 3.35808 13.2554 3.338C13.4662 3.31792 13.6767 3.37882 13.8442 3.50833L13.9225 3.5775L17.1142 6.76917C17.6683 7.3225 17.3133 8.255 16.5617 8.32833L16.4658 8.33333H3.33333C3.11232 8.33333 2.90036 8.24553 2.74408 8.08925C2.5878 7.93297 2.5 7.72101 2.5 7.5Z" fill="#666666" fill-opacity="0.8"/>
</g>
<defs>
<clipPath id="clip0_1015_3324">
<rect width="20" height="20" fill="white" transform="matrix(0 -1 1 0 0 20)"/>
</clipPath>
</defs>
</svg>
